<svg width="600" height="690" viewBox="0 0 600 690" fill="none" xmlns="http://www.w3.org/2000/svg">
<path d="M185.025 53.5332C226.989 74.6354 270.136 92.1623 313.929 108.201C346.254 120.04 379.167 130.365 410.388 145.087C431.564 155.072 452.427 165.657 471 180.116C490.046 194.944 503.387 213.597 508.557 237.564C509.98 244.16 509.895 250.818 509.748 257.491C509.711 259.162 509.279 260.693 507.566 261.462C496.085 266.614 484.576 271.613 471.523 270.686C458.14 269.734 445.769 265.279 433.577 260.065C412.184 250.917 391.607 240.092 370.8 229.735C360.022 224.371 348.679 221.51 336.497 221.65C320.997 221.826 305.561 222.85 290.128 224.093C288.816 224.198 287.461 224.285 285.79 225.473C304.215 230.608 322.545 234.177 341.219 237.527C335.803 254.838 337.455 270.743 350.145 283.692C362.381 296.178 378.284 299.73 396.057 298.881C388.702 325.241 370.044 340.578 346.787 352.209C355.652 353.065 387.513 340.1 406.421 326.052C424.438 312.665 438.345 296.2 445.762 274.491C451.151 275.815 456.139 277.618 461.377 278.527C475.904 281.048 489.819 279.634 502.946 272.657C504.752 271.697 506.488 271.434 508.329 271.923C525.782 276.562 542.993 281.865 558.595 291.289C581.922 305.381 595.617 325.886 598.865 353.001C602.916 386.816 590.335 414.366 566.301 437.419C565.935 437.77 565.438 437.984 564.976 438.277C563.163 437.033 563.963 435.274 563.953 433.831C563.852 418.014 560.084 403.377 549.713 391.058C540.443 380.047 528.377 372.967 515.11 367.874C491.878 358.955 467.816 356.639 443.134 358.807C420.067 360.833 399.43 369.248 380.26 381.789C379.525 382.271 378.527 382.577 378.234 383.987C383.406 383.092 387.942 380.778 392.653 379.105C417.704 370.207 443.612 367.388 469.926 369.022C491.371 370.354 512.147 375.144 531.334 385.38C540.078 390.045 546.64 396.532 548.636 406.703C548.789 407.479 549.183 408.239 548.494 408.98C547.363 409.548 546.457 408.784 545.526 408.377C529.437 401.338 512.585 397.93 495.06 397.34C474.1 396.635 453.758 399.402 434.474 407.912C417.117 415.572 402.83 426.771 394.818 444.582C387.452 460.958 390.105 476.862 397.56 492.393C404.848 507.575 413.942 521.799 421.251 536.982C428.467 551.97 434.165 567.419 436.719 583.915C440.631 609.186 437.809 633.884 430.215 658.148C427.138 667.979 423.325 677.515 418.376 686.57C417.697 687.811 417.355 689.362 415.429 690C411.216 684.632 407.061 679.126 402.688 673.799C382.648 649.388 359.025 628.753 334.46 609.097C311.818 590.981 289.133 572.9 268.765 552.157C249.217 532.248 231.765 510.706 217.791 486.467C217.192 485.429 216.505 484.439 215.81 483.461C215.598 483.163 215.223 482.982 214.527 482.978C227.164 526.998 250.83 565.137 279.224 601.942C270.094 600.788 262.506 598.888 254.979 596.825C223.056 588.076 193.702 574.156 167.864 553.218C150.799 539.389 136.218 523.345 124.49 504.75C121.197 499.529 121.156 499.458 115.974 502.88C94.6977 516.931 72.2672 528.646 47.9111 536.436C34.157 540.835 20.1527 544.077 5.69521 545.05C4.25767 545.147 2.80798 545.063 0 545.063C19.123 522.412 31.9502 497.334 42.8041 471.182C53.653 445.042 61.764 418 68.533 390.34C53.82 405.643 40.4683 422.206 23.3641 435.35C27.3884 375.149 42.9031 319.567 87.7928 275.469C86.1226 274.215 84.6982 274.932 83.2256 275.339C69.1337 279.232 56.1612 285.97 42.6268 291.279C39.1644 292.637 35.7055 294.004 31.8458 294.841C54.0805 246.466 88.808 212.196 141.667 197.664C87.3745 192.91 58.332 160.019 43.4187 110.896C88.7126 124.25 134.667 131.623 181.753 131.515C179.181 129.298 176.02 128.908 173.079 128.007C148.774 120.559 127.987 108.024 113.165 86.8139C101.7 70.408 95.2378 52.0501 92.195 32.4028C90.5829 21.9937 89.6819 11.5373 90.9077 0C121.69 19.4685 152.621 37.5126 185.025 53.5332ZM518.19 309.141C519.068 307.681 520.559 306.078 519.038 304.488C517.432 302.81 515.322 303.557 513.494 304.491C509.91 306.322 506.783 313.037 507.57 317.635C511.649 315.633 515.066 313.051 518.19 309.141Z" fill="#EBEBEB"/>
<path d="M424.222 270.043C419.822 279.228 413.73 286.205 403.187 286.686C385.811 287.478 372.98 269.641 378.133 252.329C378.613 250.717 378.865 248.944 380.372 247.424C394.986 254.364 409.457 261.773 424.904 266.668C425.529 267.937 424.709 268.81 424.222 270.043Z" fill="#EBEBEB"/>
</svg>
