<svg width="1698" height="690" viewBox="0 0 1698 690" fill="none" xmlns="http://www.w3.org/2000/svg">
<path d="M185.144 53.5332C227.135 74.6354 270.31 92.1623 314.131 108.201C346.477 120.04 379.411 130.365 410.652 145.087C431.841 155.072 452.717 165.657 471.302 180.116C490.361 194.944 503.711 213.597 508.884 237.564C510.308 244.16 510.223 250.818 510.075 257.491C510.038 259.162 509.607 260.693 507.892 261.462C496.403 266.614 484.887 271.613 471.826 270.686C458.435 269.734 446.055 265.279 433.856 260.065C412.448 250.917 391.859 240.092 371.038 229.735C360.254 224.371 348.903 221.51 336.713 221.65C321.203 221.826 305.758 222.85 290.315 224.093C289.001 224.198 287.645 224.285 285.974 225.473C304.41 230.608 322.752 234.177 341.438 237.527C336.019 254.838 337.671 270.743 350.369 283.692C362.613 296.178 378.527 299.73 396.312 298.881C388.952 325.241 370.282 340.578 347.01 352.209C355.88 353.065 387.762 340.1 406.682 326.052C424.711 312.665 438.626 296.2 446.048 274.491C451.441 275.815 456.432 277.618 461.673 278.527C476.21 281.048 490.133 279.634 503.27 272.657C505.076 271.697 506.814 271.434 508.655 271.923C526.12 276.562 543.341 281.865 558.954 291.289C582.296 305.381 595.999 325.886 599.25 353.001C603.304 386.816 590.714 414.366 566.664 437.419C566.299 437.77 565.801 437.984 565.339 438.277C563.525 437.033 564.325 435.274 564.316 433.831C564.214 418.014 560.444 403.377 550.067 391.058C540.79 380.047 528.716 372.967 515.441 367.874C492.194 358.955 468.116 356.639 443.418 358.807C420.337 360.833 399.687 369.248 380.505 381.789C379.768 382.271 378.77 382.577 378.477 383.987C383.652 383.092 388.192 380.778 392.906 379.105C417.972 370.207 443.897 367.388 470.228 369.022C491.687 370.354 512.476 375.144 531.675 385.38C540.425 390.045 546.991 396.532 548.989 406.703C549.141 407.479 549.536 408.239 548.847 408.98C547.715 409.548 546.808 408.784 545.876 408.377C529.777 401.338 512.915 397.93 495.378 397.34C474.405 396.635 454.05 399.402 434.753 407.912C417.385 415.572 403.088 426.771 395.071 444.582C387.701 460.958 390.355 476.862 397.816 492.393C405.108 507.575 414.207 521.799 421.522 536.982C428.742 551.97 434.444 567.419 437 583.915C440.915 609.186 438.09 633.884 430.491 658.148C427.412 667.979 423.597 677.516 418.644 686.57C417.966 687.811 417.623 689.362 415.695 690C411.48 684.632 407.322 679.126 402.946 673.799C382.894 649.388 359.256 628.753 334.675 609.097C312.018 590.981 289.319 572.9 268.938 552.157C249.377 532.248 231.914 510.706 217.931 486.467C217.332 485.429 216.644 484.439 215.948 483.461C215.737 483.163 215.361 482.982 214.665 482.978C227.31 526.998 250.991 565.137 279.403 601.942C270.267 600.788 262.675 598.888 255.143 596.825C223.199 588.076 193.827 574.156 167.972 553.218C150.896 539.389 136.306 523.345 124.57 504.75C121.275 499.529 121.234 499.458 116.048 502.88C94.7585 516.931 72.3136 528.646 47.9419 536.436C34.1789 540.835 20.1656 544.077 5.69887 545.05C4.2604 545.147 2.80979 545.063 0 545.063C19.1352 522.412 31.9708 497.334 42.8316 471.182C53.6874 445.042 61.8036 418 68.577 390.34C53.8546 405.643 40.4943 422.206 23.3791 435.35C27.406 375.149 42.9306 319.567 87.8492 275.469C86.1779 274.215 84.7526 274.932 83.279 275.339C69.1781 279.232 56.1973 285.97 42.6542 291.279C39.1895 292.637 35.7285 294.004 31.8662 294.841C54.1152 246.466 88.8651 212.196 141.758 197.664C87.4306 192.91 58.3695 160.019 43.4466 110.896C88.7696 124.25 134.754 131.623 181.869 131.515C179.296 129.298 176.133 128.908 173.19 128.007C148.869 120.559 128.069 108.024 113.237 86.8139C101.765 70.408 95.2989 52.0501 92.2542 32.4028C90.6411 21.9937 89.7395 11.5373 90.9661 0C121.768 19.4685 152.719 37.5126 185.144 53.5332ZM518.523 309.141C519.401 307.681 520.894 306.078 519.372 304.488C517.765 302.81 515.653 303.557 513.823 304.491C510.237 306.322 507.108 313.037 507.896 317.635C511.977 315.633 515.397 313.051 518.523 309.141Z" fill="#17181C"/>
<path d="M424.495 270.043C420.092 279.228 413.996 286.205 403.446 286.686C386.059 287.478 373.219 269.641 378.376 252.329C378.856 250.717 379.108 248.944 380.616 247.424C395.24 254.364 409.72 261.773 425.177 266.668C425.802 267.937 424.982 268.81 424.495 270.043Z" fill="#17181C"/>
<path d="M866.258 254.242C866.258 250.766 866.547 248.4 867.127 247.145C867.803 245.793 869.106 244.876 871.037 244.393L920.863 232.371C922.119 231.985 923.422 231.791 924.774 231.791C926.126 231.791 927.043 232.226 927.526 233.095C928.009 233.868 928.25 235.509 928.25 238.02L926.512 260.76C926.029 267.423 925.498 274.037 924.919 280.603C924.339 287.17 923.47 292.915 922.312 297.84L919.705 318.407C918.932 324.491 918.208 331.105 917.532 338.251C916.856 345.3 916.132 353.218 915.359 362.005L908.552 433.413C908.455 434.282 908.262 435.151 907.972 436.02C907.683 436.889 907.055 437.516 906.089 437.903C905.413 438.192 903.82 438.82 901.309 439.786C898.895 440.751 895.999 441.862 892.619 443.117C889.239 444.372 885.618 445.676 881.756 447.028C877.893 448.476 874.224 449.78 870.748 450.939C867.271 452.097 864.181 453.063 861.478 453.835C858.774 454.608 856.939 454.994 855.974 454.994C854.622 454.994 853.415 454.608 852.353 453.835C851.387 453.159 850.904 451.808 850.904 449.78C850.904 438.096 851.58 426.17 852.932 414.004C854.284 401.74 855.491 389.574 856.553 377.503C856.746 376.151 856.794 374.896 856.698 373.737C856.698 372.579 856.794 371.323 856.988 369.971H803.975L798.037 433.413C797.94 434.282 797.747 435.151 797.457 436.02C797.264 436.792 796.636 437.42 795.574 437.903C795.188 438.096 793.257 438.82 789.781 440.075C786.401 441.234 782.442 442.634 777.903 444.276C773.462 445.821 769.02 447.366 764.578 448.911C760.233 450.552 756.901 451.808 754.584 452.677C753.425 453.159 751.977 453.642 750.238 454.125C748.597 454.704 746.955 454.994 745.314 454.994C743.962 454.994 742.755 454.608 741.693 453.835C740.727 453.063 740.244 451.663 740.244 449.635C740.244 445 740.389 439.737 740.679 433.847C741.065 427.86 741.5 421.632 741.982 415.162C742.465 408.596 743.045 401.885 743.721 395.029C744.396 388.173 745.072 381.414 745.748 374.751L746.038 370.551C738.217 370.551 732.519 370.358 728.947 369.971C725.47 369.489 723.732 368.33 723.732 366.495C723.732 365.24 724.456 363.598 725.905 361.571C727.836 358.867 730.057 355.632 732.568 351.866C735.175 348.004 737.637 344.238 739.955 340.568C742.369 336.802 744.493 333.471 746.328 330.574C748.259 327.581 749.514 325.65 750.094 324.781L753.425 289.873C753.425 289.68 753.522 288.232 753.715 285.528C753.908 282.824 754.149 279.638 754.439 275.969C754.729 272.203 755.018 268.34 755.308 264.381C755.694 260.422 756.032 257.042 756.322 254.242C756.515 250.862 756.756 248.497 757.046 247.145C757.432 245.793 758.591 244.876 760.522 244.393L809.769 232.371C811.024 231.985 812.328 231.791 813.68 231.791C815.031 231.791 815.949 232.226 816.432 233.095C816.914 233.868 817.156 235.509 817.156 238.02C816.48 244.972 815.949 251.297 815.563 256.994C815.176 262.691 814.742 268.002 814.259 272.927C813.873 277.851 813.438 282.535 812.955 286.977C812.473 291.418 811.797 295.957 810.928 300.592L808.031 323.042L860.609 322.463C861.478 309.62 862.443 298.709 863.506 289.729C864.568 280.748 865.244 273.651 865.533 268.437C865.823 263.512 866.016 259.988 866.113 257.863C866.209 255.739 866.258 254.532 866.258 254.242ZM1089.32 415.887C1089.22 416.273 1089.17 416.659 1089.17 417.045C1089.17 417.335 1089.17 417.625 1089.17 417.914C1089.17 420.328 1089.56 422.356 1090.33 423.998C1091.1 425.543 1091.92 426.846 1092.79 427.909C1093.76 428.874 1094.63 429.695 1095.4 430.371C1096.17 430.95 1096.56 431.481 1096.56 431.964C1096.56 433.316 1095.11 434.571 1092.21 435.73L1053.25 452.387C1053.15 452.484 1052.82 452.532 1052.24 452.532C1051.46 452.532 1050.69 451.856 1049.92 450.504C1049.15 449.152 1048.37 447.414 1047.6 445.29C1046.92 443.262 1046.25 441.089 1045.57 438.772C1044.99 436.358 1044.46 434.137 1043.98 432.109C1037.9 439.158 1031.33 444.324 1024.28 447.607C1017.23 450.89 1010.23 452.532 1003.28 452.532C995.168 452.532 987.25 450.745 979.525 447.173C971.8 443.6 964.944 438.53 958.957 431.964C952.97 425.301 948.142 417.287 944.473 407.92C940.9 398.554 939.113 388.029 939.113 376.345C939.113 362.536 941.093 349.935 945.052 338.541C949.108 327.146 954.563 317.345 961.419 309.137C968.275 300.93 976.241 294.605 985.318 290.163C994.492 285.625 1004.2 283.355 1014.43 283.355C1021.67 283.355 1028.53 284.852 1035 287.846C1041.47 290.742 1047.6 294.508 1053.39 299.143C1053.97 296.246 1054.31 293.929 1054.41 292.191C1054.5 290.453 1054.7 289.101 1054.99 288.135C1055.37 287.17 1056.05 286.542 1057.02 286.252C1057.98 285.866 1059.57 285.576 1061.8 285.383C1068.75 284.418 1075.65 283.549 1082.51 282.776C1089.46 281.907 1096.7 281.279 1104.23 280.893L1089.32 415.887ZM1046.01 361.281C1046.97 355.777 1047.6 350.611 1047.89 345.783C1048.28 340.858 1048.57 336.368 1048.76 332.312C1047.21 331.154 1045.52 329.947 1043.69 328.691C1041.95 327.436 1040.02 326.277 1037.9 325.215C1035.87 324.056 1033.7 323.139 1031.38 322.463C1029.16 321.787 1026.79 321.449 1024.28 321.449C1019.07 321.449 1014.67 323.139 1011.1 326.519C1007.62 329.898 1004.78 334.05 1002.55 338.975C1000.43 343.9 998.885 349.114 997.92 354.618C997.051 360.122 996.616 364.999 996.616 369.247C996.616 384.504 998.596 395.705 1002.55 402.851C1006.61 409.9 1012.21 413.424 1019.36 413.424C1022.25 413.424 1025.49 412.604 1029.06 410.962C1032.63 409.32 1036.25 407.051 1039.92 404.154L1046.01 361.281ZM1240.68 327.098C1238.65 326.905 1236.38 326.712 1233.87 326.519C1231.36 326.229 1228.7 326.084 1225.9 326.084C1221.65 326.084 1217.31 326.47 1212.87 327.243C1208.52 327.919 1204.47 329.319 1200.7 331.443C1196.93 333.568 1193.7 336.513 1191 340.279C1188.29 343.948 1186.55 348.728 1185.78 354.618C1185.1 361.764 1184.53 367.654 1184.04 372.289C1183.66 376.827 1183.37 380.593 1183.17 383.587C1182.98 386.484 1182.79 388.849 1182.59 390.684C1182.5 392.422 1182.4 394.064 1182.3 395.609C1182.3 395.995 1182.21 397.057 1182.01 398.795C1181.92 400.533 1181.73 402.561 1181.44 404.879C1181.15 407.196 1180.86 409.707 1180.57 412.41C1180.37 415.114 1180.13 417.625 1179.84 419.942C1179.55 422.26 1179.31 424.287 1179.12 426.026C1179.02 427.764 1178.97 428.826 1178.97 429.212C1178.97 429.985 1178.97 430.661 1178.97 431.24C1179.07 431.723 1179.12 432.206 1179.12 432.688C1179.12 433.461 1178.73 434.137 1177.96 434.716C1177.28 435.199 1175.69 435.778 1173.18 436.454L1134.8 450.214C1133.73 450.601 1132.33 451.083 1130.6 451.663C1128.86 452.242 1127.17 452.532 1125.53 452.532C1124.17 452.532 1122.97 452.194 1121.91 451.518C1120.94 450.842 1120.46 449.683 1120.46 448.042L1132.91 304.503C1133.2 301.316 1133.54 299.143 1133.93 297.985C1134.41 296.729 1135.52 295.909 1137.26 295.522C1146.05 293.784 1155.12 292.046 1164.49 290.308C1173.86 288.473 1182.93 286.156 1191.72 283.355C1192.49 283.355 1192.93 283.5 1193.02 283.79C1193.22 283.983 1193.31 284.321 1193.31 284.804C1193.31 284.997 1193.26 285.287 1193.17 285.673C1193.17 286.059 1193.02 286.928 1192.73 288.28C1192.54 289.632 1192.2 291.708 1191.72 294.508C1191.33 297.212 1190.75 301.026 1189.98 305.951C1194.42 302.475 1199.3 299.288 1204.61 296.391C1210.02 293.494 1215.43 291.032 1220.83 289.004C1226.24 286.88 1231.45 285.238 1236.48 284.08C1241.5 282.824 1245.89 282.197 1249.66 282.197L1240.68 327.098ZM1317.88 343.9C1317.3 353.17 1316.77 360.702 1316.28 366.495C1315.9 372.289 1315.56 377.02 1315.27 380.69C1314.98 384.263 1314.74 387.111 1314.55 389.236C1314.35 391.263 1314.21 393.195 1314.11 395.029C1316.33 400.823 1319.62 405.554 1323.96 409.224C1328.31 412.797 1333.52 414.583 1339.6 414.583C1344.91 414.583 1349.55 412.941 1353.51 409.658C1357.56 406.279 1360.9 401.933 1363.5 396.623C1366.21 391.312 1368.23 385.373 1369.59 378.807C1370.94 372.241 1371.61 365.723 1371.61 359.253C1371.61 353.942 1371.13 349.018 1370.17 344.479C1369.3 339.941 1367.94 336.03 1366.11 332.747C1364.28 329.367 1361.96 326.76 1359.16 324.925C1356.45 322.994 1353.22 322.028 1349.45 322.028C1346.36 322.028 1343.27 322.656 1340.18 323.911C1337.19 325.07 1334.29 326.615 1331.49 328.546C1328.69 330.381 1326.13 332.505 1323.82 334.92C1321.59 337.237 1319.76 339.506 1318.31 341.727L1317.88 343.9ZM1320.77 301.461C1328.89 295.957 1337.38 291.563 1346.27 288.28C1355.15 284.997 1364.42 283.355 1374.08 283.355C1383.15 283.355 1390.97 285.238 1397.54 289.004C1404.2 292.674 1409.71 297.695 1414.05 304.068C1418.4 310.345 1421.58 317.587 1423.61 325.794C1425.74 334.002 1426.8 342.596 1426.8 351.576C1426.8 359.398 1426.03 367.316 1424.48 375.331C1422.94 383.345 1420.67 391.118 1417.67 398.65C1414.68 406.086 1410.96 413.086 1406.52 419.653C1402.08 426.219 1396.96 431.964 1391.17 436.889C1385.47 441.717 1379.1 445.531 1372.05 448.331C1365 451.132 1357.37 452.532 1349.16 452.532C1341.92 452.532 1334.97 451.083 1328.31 448.187C1321.74 445.29 1315.56 441.524 1309.77 436.889C1309.77 437.372 1309.62 439.158 1309.33 442.248C1309.14 445.241 1308.85 448.911 1308.46 453.256C1308.08 457.601 1307.64 462.236 1307.16 467.161C1306.68 472.182 1306.24 476.865 1305.86 481.211C1305.47 485.556 1305.13 489.225 1304.84 492.219C1304.65 495.309 1304.55 497.095 1304.55 497.578C1304.55 498.35 1304.55 498.978 1304.55 499.461C1304.65 500.04 1304.7 500.571 1304.7 501.054C1304.7 501.827 1304.31 502.454 1303.54 502.937C1302.86 503.516 1301.27 504.144 1298.76 504.82L1260.66 514.525C1259.6 514.814 1258.2 515.249 1256.46 515.828C1254.73 516.504 1253.04 516.842 1251.39 516.842C1250.04 516.842 1248.84 516.504 1247.77 515.828C1246.81 515.152 1246.32 513.897 1246.32 512.062L1264 300.012C1264.29 296.826 1264.62 294.653 1265.01 293.494C1265.49 292.239 1266.6 291.418 1268.34 291.032C1277.13 289.294 1286.16 287.556 1295.43 285.818C1304.7 283.983 1313.73 281.666 1322.51 278.865C1323.28 278.865 1323.72 279.01 1323.82 279.3C1324.01 279.493 1324.11 279.831 1324.11 280.314C1324.11 280.507 1324.06 280.797 1323.96 281.183C1323.96 281.569 1323.82 282.438 1323.53 283.79C1323.33 285.142 1323 287.218 1322.51 290.018C1322.13 292.722 1321.55 296.536 1320.77 301.461ZM1448.96 383.587C1450.22 370.358 1451.47 357.274 1452.73 344.334C1453.98 331.395 1455.09 318.118 1456.06 304.503C1456.25 301.316 1456.54 299.143 1456.93 297.985C1457.41 296.729 1458.52 295.909 1460.26 295.522C1468.47 293.881 1477.06 292.191 1486.04 290.453C1495.02 288.618 1503.71 286.301 1512.11 283.5C1512.4 283.404 1512.84 283.355 1513.41 283.355C1514.48 283.355 1515.01 283.742 1515.01 284.514L1501.97 425.591C1501.68 428.778 1501.34 430.999 1500.96 432.254C1500.57 433.413 1499.51 434.185 1497.77 434.571C1489.56 437.082 1481.26 439.882 1472.86 442.972C1464.46 446.062 1455.57 449.2 1446.21 452.387C1445.92 452.484 1445.48 452.532 1444.9 452.532C1443.84 452.532 1443.31 452.049 1443.31 451.083C1443.31 450.987 1443.41 449.683 1443.6 447.173C1443.79 444.662 1444.04 441.427 1444.33 437.468C1444.71 433.509 1445.1 429.067 1445.48 424.143C1445.87 419.218 1446.26 414.293 1446.64 409.369C1447.13 404.444 1447.56 399.712 1447.95 395.174C1448.33 390.636 1448.67 386.773 1448.96 383.587ZM1459.82 268.002C1460.11 263.85 1460.31 260.663 1460.4 258.443C1460.6 256.222 1460.74 254.58 1460.84 253.518C1460.93 252.359 1460.98 251.635 1460.98 251.345C1460.98 251.056 1460.98 250.862 1460.98 250.766C1461.08 250.573 1461.13 250.283 1461.13 249.897C1461.22 249.414 1461.32 248.497 1461.42 247.145C1461.51 245.696 1461.66 243.62 1461.85 240.917C1462.04 238.213 1462.33 234.495 1462.72 229.764C1462.91 226.577 1463.2 224.404 1463.59 223.246C1464.07 221.99 1465.18 221.17 1466.92 220.783C1475.13 219.142 1483.72 217.452 1492.7 215.714C1501.68 213.879 1510.37 211.562 1518.77 208.761C1519.06 208.665 1519.5 208.617 1520.08 208.617C1520.37 209.196 1520.75 209.582 1521.24 209.775L1521.67 210.065L1518.48 249.752C1518.19 252.939 1517.81 255.159 1517.33 256.415C1516.94 257.67 1515.93 258.443 1514.28 258.732C1506.08 260.277 1497.77 261.967 1489.37 263.802C1480.97 265.636 1472.09 267.471 1462.72 269.306C1462.43 269.402 1462 269.451 1461.42 269.451C1460.35 269.451 1459.82 268.968 1459.82 268.002ZM1681.72 415.887C1681.63 416.273 1681.58 416.659 1681.58 417.045C1681.58 417.335 1681.58 417.625 1681.58 417.914C1681.58 420.328 1681.96 422.356 1682.74 423.998C1683.51 425.543 1684.33 426.846 1685.2 427.909C1686.16 428.874 1687.03 429.695 1687.81 430.371C1688.58 430.95 1688.96 431.481 1688.96 431.964C1688.96 433.316 1687.52 434.571 1684.62 435.73L1645.66 452.387C1645.56 452.484 1645.22 452.532 1644.64 452.532C1643.87 452.532 1643.1 451.856 1642.33 450.504C1641.55 449.152 1640.78 447.414 1640.01 445.29C1639.33 443.262 1638.66 441.089 1637.98 438.772C1637.4 436.358 1636.87 434.137 1636.39 432.109C1630.3 439.158 1623.74 444.324 1616.69 447.607C1609.64 450.89 1602.64 452.532 1595.69 452.532C1587.57 452.532 1579.66 450.745 1571.93 447.173C1564.21 443.6 1557.35 438.53 1551.36 431.964C1545.38 425.301 1540.55 417.287 1536.88 407.92C1533.31 398.554 1531.52 388.029 1531.52 376.345C1531.52 362.536 1533.5 349.935 1537.46 338.541C1541.51 327.146 1546.97 317.345 1553.83 309.137C1560.68 300.93 1568.65 294.605 1577.73 290.163C1586.9 285.625 1596.6 283.355 1606.84 283.355C1614.08 283.355 1620.94 284.852 1627.41 287.846C1633.88 290.742 1640.01 294.508 1645.8 299.143C1646.38 296.246 1646.72 293.929 1646.82 292.191C1646.91 290.453 1647.1 289.101 1647.39 288.135C1647.78 287.17 1648.46 286.542 1649.42 286.252C1650.39 285.866 1651.98 285.576 1654.2 285.383C1661.15 284.418 1668.06 283.549 1674.91 282.776C1681.87 281.907 1689.11 281.279 1696.64 280.893L1681.72 415.887ZM1638.41 361.281C1639.38 355.777 1640.01 350.611 1640.3 345.783C1640.68 340.858 1640.97 336.368 1641.17 332.312C1639.62 331.154 1637.93 329.947 1636.1 328.691C1634.36 327.436 1632.43 326.277 1630.3 325.215C1628.28 324.056 1626.1 323.139 1623.79 322.463C1621.56 321.787 1619.2 321.449 1616.69 321.449C1611.47 321.449 1607.08 323.139 1603.51 326.519C1600.03 329.898 1597.18 334.05 1594.96 338.975C1592.84 343.9 1591.29 349.114 1590.33 354.618C1589.46 360.122 1589.02 364.999 1589.02 369.247C1589.02 384.504 1591 395.705 1594.96 402.851C1599.02 409.9 1604.62 413.424 1611.76 413.424C1614.66 413.424 1617.89 412.604 1621.47 410.962C1625.04 409.32 1628.66 407.051 1632.33 404.154L1638.41 361.281Z" fill="#17181C"/>
</svg>
