<svg width="1698" height="690" viewBox="0 0 1698 690" fill="none" xmlns="http://www.w3.org/2000/svg">
<path d="M185.144 53.5332C227.135 74.6354 270.31 92.1623 314.131 108.201C346.477 120.04 379.411 130.365 410.652 145.087C431.841 155.072 452.717 165.657 471.302 180.116C490.361 194.944 503.711 213.597 508.884 237.564C510.308 244.16 510.223 250.818 510.075 257.491C510.038 259.162 509.607 260.693 507.892 261.462C496.403 266.614 484.887 271.613 471.826 270.686C458.435 269.734 446.055 265.279 433.856 260.065C412.448 250.917 391.859 240.092 371.038 229.735C360.254 224.371 348.903 221.51 336.713 221.65C321.203 221.826 305.758 222.85 290.315 224.093C289.001 224.198 287.645 224.285 285.974 225.473C304.41 230.608 322.752 234.177 341.438 237.527C336.019 254.838 337.671 270.743 350.369 283.692C362.613 296.178 378.527 299.73 396.312 298.881C388.952 325.241 370.282 340.578 347.01 352.209C355.88 353.065 387.762 340.1 406.682 326.052C424.711 312.665 438.626 296.2 446.048 274.491C451.441 275.815 456.432 277.618 461.673 278.527C476.21 281.048 490.133 279.634 503.27 272.657C505.076 271.697 506.814 271.434 508.655 271.923C526.12 276.562 543.341 281.865 558.954 291.289C582.296 305.381 595.999 325.886 599.25 353.001C603.304 386.816 590.714 414.366 566.664 437.419C566.299 437.77 565.801 437.984 565.339 438.277C563.525 437.033 564.325 435.274 564.316 433.831C564.214 418.014 560.444 403.377 550.067 391.058C540.79 380.047 528.716 372.967 515.441 367.874C492.194 358.955 468.116 356.639 443.418 358.807C420.337 360.833 399.687 369.248 380.505 381.789C379.768 382.271 378.77 382.577 378.477 383.987C383.652 383.092 388.192 380.778 392.906 379.105C417.972 370.207 443.897 367.388 470.228 369.022C491.687 370.354 512.476 375.144 531.675 385.38C540.425 390.045 546.991 396.532 548.989 406.703C549.141 407.479 549.536 408.239 548.847 408.98C547.715 409.548 546.808 408.784 545.876 408.377C529.777 401.338 512.915 397.93 495.378 397.34C474.405 396.635 454.05 399.402 434.753 407.912C417.385 415.572 403.088 426.771 395.071 444.582C387.701 460.958 390.355 476.862 397.816 492.393C405.108 507.575 414.207 521.799 421.522 536.982C428.742 551.97 434.444 567.419 437 583.915C440.915 609.186 438.09 633.884 430.491 658.148C427.412 667.979 423.597 677.516 418.644 686.57C417.966 687.811 417.623 689.362 415.695 690C411.48 684.632 407.322 679.126 402.946 673.799C382.894 649.388 359.256 628.753 334.675 609.097C312.018 590.981 289.319 572.9 268.938 552.157C249.377 532.248 231.914 510.706 217.931 486.467C217.332 485.429 216.644 484.439 215.948 483.461C215.737 483.163 215.361 482.982 214.665 482.978C227.31 526.998 250.991 565.137 279.403 601.942C270.267 600.788 262.675 598.888 255.143 596.825C223.199 588.076 193.827 574.156 167.972 553.218C150.896 539.389 136.306 523.345 124.57 504.75C121.275 499.529 121.234 499.458 116.048 502.88C94.7585 516.931 72.3136 528.646 47.9419 536.436C34.1789 540.835 20.1656 544.077 5.69887 545.05C4.2604 545.147 2.80979 545.063 0 545.063C19.1352 522.412 31.9708 497.334 42.8316 471.182C53.6874 445.042 61.8036 418 68.577 390.34C53.8546 405.643 40.4943 422.206 23.3791 435.35C27.406 375.149 42.9306 319.567 87.8492 275.469C86.1779 274.215 84.7526 274.932 83.279 275.339C69.1781 279.232 56.1973 285.97 42.6542 291.279C39.1895 292.637 35.7285 294.004 31.8662 294.841C54.1152 246.466 88.8651 212.196 141.758 197.664C87.4306 192.91 58.3695 160.019 43.4466 110.896C88.7696 124.25 134.754 131.623 181.869 131.515C179.296 129.298 176.133 128.908 173.19 128.007C148.869 120.559 128.069 108.024 113.237 86.8139C101.765 70.408 95.2989 52.0501 92.2542 32.4028C90.6411 21.9937 89.7395 11.5373 90.9661 0C121.768 19.4685 152.719 37.5126 185.144 53.5332ZM518.523 309.141C519.401 307.681 520.894 306.078 519.372 304.488C517.765 302.81 515.653 303.557 513.823 304.491C510.237 306.322 507.108 313.037 507.896 317.635C511.977 315.633 515.397 313.051 518.523 309.141Z" fill="#EBEBEB"/>
<path d="M424.495 270.043C420.092 279.228 413.996 286.205 403.446 286.686C386.059 287.478 373.219 269.641 378.376 252.329C378.856 250.717 379.108 248.944 380.616 247.424C395.24 254.364 409.72 261.773 425.177 266.668C425.802 267.937 424.982 268.81 424.495 270.043Z" fill="#EBEBEB"/>
<path d="M866.258 253.242C866.258 249.766 866.547 247.4 867.127 246.145C867.803 244.793 869.106 243.876 871.037 243.393L920.863 231.371C922.119 230.985 923.422 230.791 924.774 230.791C926.126 230.791 927.043 231.226 927.526 232.095C928.009 232.868 928.25 234.509 928.25 237.02L926.512 259.76C926.029 266.423 925.498 273.037 924.919 279.603C924.339 286.17 923.47 291.915 922.312 296.84L919.705 317.407C918.932 323.491 918.208 330.105 917.532 337.251C916.856 344.3 916.132 352.218 915.359 361.005L908.552 432.413C908.455 433.282 908.262 434.151 907.972 435.02C907.683 435.889 907.055 436.516 906.089 436.903C905.413 437.192 903.82 437.82 901.309 438.786C898.895 439.751 895.999 440.862 892.619 442.117C889.239 443.372 885.618 444.676 881.756 446.028C877.893 447.476 874.224 448.78 870.748 449.939C867.271 451.097 864.181 452.063 861.478 452.835C858.774 453.608 856.939 453.994 855.974 453.994C854.622 453.994 853.415 453.608 852.353 452.835C851.387 452.159 850.904 450.808 850.904 448.78C850.904 437.096 851.58 425.17 852.932 413.004C854.284 400.74 855.491 388.574 856.553 376.503C856.746 375.151 856.794 373.896 856.698 372.737C856.698 371.579 856.794 370.323 856.988 368.971H803.975L798.037 432.413C797.94 433.282 797.747 434.151 797.457 435.02C797.264 435.792 796.636 436.42 795.574 436.903C795.188 437.096 793.257 437.82 789.781 439.075C786.401 440.234 782.442 441.634 777.903 443.276C773.462 444.821 769.02 446.366 764.578 447.911C760.233 449.552 756.901 450.808 754.584 451.677C753.425 452.159 751.977 452.642 750.238 453.125C748.597 453.704 746.955 453.994 745.314 453.994C743.962 453.994 742.755 453.608 741.693 452.835C740.727 452.063 740.244 450.663 740.244 448.635C740.244 444 740.389 438.737 740.679 432.847C741.065 426.86 741.5 420.632 741.982 414.162C742.465 407.596 743.045 400.885 743.721 394.029C744.396 387.173 745.072 380.414 745.748 373.751L746.038 369.551C738.217 369.551 732.519 369.358 728.947 368.971C725.47 368.489 723.732 367.33 723.732 365.495C723.732 364.24 724.456 362.598 725.905 360.571C727.836 357.867 730.057 354.632 732.568 350.866C735.175 347.004 737.637 343.238 739.955 339.568C742.369 335.802 744.493 332.471 746.328 329.574C748.259 326.581 749.514 324.65 750.094 323.781L753.425 288.873C753.425 288.68 753.522 287.232 753.715 284.528C753.908 281.824 754.149 278.638 754.439 274.969C754.729 271.203 755.018 267.34 755.308 263.381C755.694 259.422 756.032 256.042 756.322 253.242C756.515 249.862 756.756 247.497 757.046 246.145C757.432 244.793 758.591 243.876 760.522 243.393L809.769 231.371C811.024 230.985 812.328 230.791 813.68 230.791C815.031 230.791 815.949 231.226 816.432 232.095C816.914 232.868 817.156 234.509 817.156 237.02C816.48 243.972 815.949 250.297 815.563 255.994C815.176 261.691 814.742 267.002 814.259 271.927C813.873 276.851 813.438 281.535 812.955 285.977C812.473 290.418 811.797 294.957 810.928 299.592L808.031 322.042L860.609 321.463C861.478 308.62 862.443 297.709 863.506 288.729C864.568 279.748 865.244 272.651 865.533 267.437C865.823 262.512 866.016 258.988 866.113 256.863C866.209 254.739 866.258 253.532 866.258 253.242ZM1089.32 414.887C1089.22 415.273 1089.17 415.659 1089.17 416.045C1089.17 416.335 1089.17 416.625 1089.17 416.914C1089.17 419.328 1089.56 421.356 1090.33 422.998C1091.1 424.543 1091.92 425.846 1092.79 426.909C1093.76 427.874 1094.63 428.695 1095.4 429.371C1096.17 429.95 1096.56 430.481 1096.56 430.964C1096.56 432.316 1095.11 433.571 1092.21 434.73L1053.25 451.387C1053.15 451.484 1052.82 451.532 1052.24 451.532C1051.46 451.532 1050.69 450.856 1049.92 449.504C1049.15 448.152 1048.37 446.414 1047.6 444.29C1046.92 442.262 1046.25 440.089 1045.57 437.772C1044.99 435.358 1044.46 433.137 1043.98 431.109C1037.9 438.158 1031.33 443.324 1024.28 446.607C1017.23 449.89 1010.23 451.532 1003.28 451.532C995.168 451.532 987.25 449.745 979.525 446.173C971.8 442.6 964.944 437.53 958.957 430.964C952.97 424.301 948.142 416.287 944.473 406.92C940.9 397.554 939.113 387.029 939.113 375.345C939.113 361.536 941.093 348.935 945.052 337.541C949.108 326.146 954.563 316.345 961.419 308.137C968.275 299.93 976.241 293.605 985.318 289.163C994.492 284.625 1004.2 282.355 1014.43 282.355C1021.67 282.355 1028.53 283.852 1035 286.846C1041.47 289.742 1047.6 293.508 1053.39 298.143C1053.97 295.246 1054.31 292.929 1054.41 291.191C1054.5 289.453 1054.7 288.101 1054.99 287.135C1055.37 286.17 1056.05 285.542 1057.02 285.252C1057.98 284.866 1059.57 284.576 1061.8 284.383C1068.75 283.418 1075.65 282.549 1082.51 281.776C1089.46 280.907 1096.7 280.279 1104.23 279.893L1089.32 414.887ZM1046.01 360.281C1046.97 354.777 1047.6 349.611 1047.89 344.783C1048.28 339.858 1048.57 335.368 1048.76 331.312C1047.21 330.154 1045.52 328.947 1043.69 327.691C1041.95 326.436 1040.02 325.277 1037.9 324.215C1035.87 323.056 1033.7 322.139 1031.38 321.463C1029.16 320.787 1026.79 320.449 1024.28 320.449C1019.07 320.449 1014.67 322.139 1011.1 325.519C1007.62 328.898 1004.78 333.05 1002.55 337.975C1000.43 342.9 998.885 348.114 997.92 353.618C997.051 359.122 996.616 363.999 996.616 368.247C996.616 383.504 998.596 394.705 1002.55 401.851C1006.61 408.9 1012.21 412.424 1019.36 412.424C1022.25 412.424 1025.49 411.604 1029.06 409.962C1032.63 408.32 1036.25 406.051 1039.92 403.154L1046.01 360.281ZM1240.68 326.098C1238.65 325.905 1236.38 325.712 1233.87 325.519C1231.36 325.229 1228.7 325.084 1225.9 325.084C1221.65 325.084 1217.31 325.47 1212.87 326.243C1208.52 326.919 1204.47 328.319 1200.7 330.443C1196.93 332.568 1193.7 335.513 1191 339.279C1188.29 342.948 1186.55 347.728 1185.78 353.618C1185.1 360.764 1184.53 366.654 1184.04 371.289C1183.66 375.827 1183.37 379.593 1183.17 382.587C1182.98 385.484 1182.79 387.849 1182.59 389.684C1182.5 391.422 1182.4 393.064 1182.3 394.609C1182.3 394.995 1182.21 396.057 1182.01 397.795C1181.92 399.533 1181.73 401.561 1181.44 403.879C1181.15 406.196 1180.86 408.707 1180.57 411.41C1180.37 414.114 1180.13 416.625 1179.84 418.942C1179.55 421.26 1179.31 423.287 1179.12 425.026C1179.02 426.764 1178.97 427.826 1178.97 428.212C1178.97 428.985 1178.97 429.661 1178.97 430.24C1179.07 430.723 1179.12 431.206 1179.12 431.688C1179.12 432.461 1178.73 433.137 1177.96 433.716C1177.28 434.199 1175.69 434.778 1173.18 435.454L1134.8 449.214C1133.73 449.601 1132.33 450.083 1130.6 450.663C1128.86 451.242 1127.17 451.532 1125.53 451.532C1124.17 451.532 1122.97 451.194 1121.91 450.518C1120.94 449.842 1120.46 448.683 1120.46 447.042L1132.91 303.503C1133.2 300.316 1133.54 298.143 1133.93 296.985C1134.41 295.729 1135.52 294.909 1137.26 294.522C1146.05 292.784 1155.12 291.046 1164.49 289.308C1173.86 287.473 1182.93 285.156 1191.72 282.355C1192.49 282.355 1192.93 282.5 1193.02 282.79C1193.22 282.983 1193.31 283.321 1193.31 283.804C1193.31 283.997 1193.26 284.287 1193.17 284.673C1193.17 285.059 1193.02 285.928 1192.73 287.28C1192.54 288.632 1192.2 290.708 1191.72 293.508C1191.33 296.212 1190.75 300.026 1189.98 304.951C1194.42 301.475 1199.3 298.288 1204.61 295.391C1210.02 292.494 1215.43 290.032 1220.83 288.004C1226.24 285.88 1231.45 284.238 1236.48 283.08C1241.5 281.824 1245.89 281.197 1249.66 281.197L1240.68 326.098ZM1317.88 342.9C1317.3 352.17 1316.77 359.702 1316.28 365.495C1315.9 371.289 1315.56 376.02 1315.27 379.69C1314.98 383.263 1314.74 386.111 1314.55 388.236C1314.35 390.263 1314.21 392.195 1314.11 394.029C1316.33 399.823 1319.62 404.554 1323.96 408.224C1328.31 411.797 1333.52 413.583 1339.6 413.583C1344.91 413.583 1349.55 411.941 1353.51 408.658C1357.56 405.279 1360.9 400.933 1363.5 395.623C1366.21 390.312 1368.23 384.373 1369.59 377.807C1370.94 371.241 1371.61 364.723 1371.61 358.253C1371.61 352.942 1371.13 348.018 1370.17 343.479C1369.3 338.941 1367.94 335.03 1366.11 331.747C1364.28 328.367 1361.96 325.76 1359.16 323.925C1356.45 321.994 1353.22 321.028 1349.45 321.028C1346.36 321.028 1343.27 321.656 1340.18 322.911C1337.19 324.07 1334.29 325.615 1331.49 327.546C1328.69 329.381 1326.13 331.505 1323.82 333.92C1321.59 336.237 1319.76 338.506 1318.31 340.727L1317.88 342.9ZM1320.77 300.461C1328.89 294.957 1337.38 290.563 1346.27 287.28C1355.15 283.997 1364.42 282.355 1374.08 282.355C1383.15 282.355 1390.97 284.238 1397.54 288.004C1404.2 291.674 1409.71 296.695 1414.05 303.068C1418.4 309.345 1421.58 316.587 1423.61 324.794C1425.74 333.002 1426.8 341.596 1426.8 350.576C1426.8 358.398 1426.03 366.316 1424.48 374.331C1422.94 382.345 1420.67 390.118 1417.67 397.65C1414.68 405.086 1410.96 412.086 1406.52 418.653C1402.08 425.219 1396.96 430.964 1391.17 435.889C1385.47 440.717 1379.1 444.531 1372.05 447.331C1365 450.132 1357.37 451.532 1349.16 451.532C1341.92 451.532 1334.97 450.083 1328.31 447.187C1321.74 444.29 1315.56 440.524 1309.77 435.889C1309.77 436.372 1309.62 438.158 1309.33 441.248C1309.14 444.241 1308.85 447.911 1308.46 452.256C1308.08 456.601 1307.64 461.236 1307.16 466.161C1306.68 471.182 1306.24 475.865 1305.86 480.211C1305.47 484.556 1305.13 488.225 1304.84 491.219C1304.65 494.309 1304.55 496.095 1304.55 496.578C1304.55 497.35 1304.55 497.978 1304.55 498.461C1304.65 499.04 1304.7 499.571 1304.7 500.054C1304.7 500.827 1304.31 501.454 1303.54 501.937C1302.86 502.516 1301.27 503.144 1298.76 503.82L1260.66 513.525C1259.6 513.814 1258.2 514.249 1256.46 514.828C1254.73 515.504 1253.04 515.842 1251.39 515.842C1250.04 515.842 1248.84 515.504 1247.77 514.828C1246.81 514.152 1246.32 512.897 1246.32 511.062L1264 299.012C1264.29 295.826 1264.62 293.653 1265.01 292.494C1265.49 291.239 1266.6 290.418 1268.34 290.032C1277.13 288.294 1286.16 286.556 1295.43 284.818C1304.7 282.983 1313.73 280.666 1322.51 277.865C1323.28 277.865 1323.72 278.01 1323.82 278.3C1324.01 278.493 1324.11 278.831 1324.11 279.314C1324.11 279.507 1324.06 279.797 1323.96 280.183C1323.96 280.569 1323.82 281.438 1323.53 282.79C1323.33 284.142 1323 286.218 1322.51 289.018C1322.13 291.722 1321.55 295.536 1320.77 300.461ZM1448.96 382.587C1450.22 369.358 1451.47 356.274 1452.73 343.334C1453.98 330.395 1455.09 317.118 1456.06 303.503C1456.25 300.316 1456.54 298.143 1456.93 296.985C1457.41 295.729 1458.52 294.909 1460.26 294.522C1468.47 292.881 1477.06 291.191 1486.04 289.453C1495.02 287.618 1503.71 285.301 1512.11 282.5C1512.4 282.404 1512.84 282.355 1513.41 282.355C1514.48 282.355 1515.01 282.742 1515.01 283.514L1501.97 424.591C1501.68 427.778 1501.34 429.999 1500.96 431.254C1500.57 432.413 1499.51 433.185 1497.77 433.571C1489.56 436.082 1481.26 438.882 1472.86 441.972C1464.46 445.062 1455.57 448.2 1446.21 451.387C1445.92 451.484 1445.48 451.532 1444.9 451.532C1443.84 451.532 1443.31 451.049 1443.31 450.083C1443.31 449.987 1443.41 448.683 1443.6 446.173C1443.79 443.662 1444.04 440.427 1444.33 436.468C1444.71 432.509 1445.1 428.067 1445.48 423.143C1445.87 418.218 1446.26 413.293 1446.64 408.369C1447.13 403.444 1447.56 398.712 1447.95 394.174C1448.33 389.636 1448.67 385.773 1448.96 382.587ZM1459.82 267.002C1460.11 262.85 1460.31 259.663 1460.4 257.443C1460.6 255.222 1460.74 253.58 1460.84 252.518C1460.93 251.359 1460.98 250.635 1460.98 250.345C1460.98 250.056 1460.98 249.862 1460.98 249.766C1461.08 249.573 1461.13 249.283 1461.13 248.897C1461.22 248.414 1461.32 247.497 1461.42 246.145C1461.51 244.696 1461.66 242.62 1461.85 239.917C1462.04 237.213 1462.33 233.495 1462.72 228.764C1462.91 225.577 1463.2 223.404 1463.59 222.246C1464.07 220.99 1465.18 220.17 1466.92 219.783C1475.13 218.142 1483.72 216.452 1492.7 214.714C1501.68 212.879 1510.37 210.562 1518.77 207.761C1519.06 207.665 1519.5 207.617 1520.08 207.617C1520.37 208.196 1520.75 208.582 1521.24 208.775L1521.67 209.065L1518.48 248.752C1518.19 251.939 1517.81 254.159 1517.33 255.415C1516.94 256.67 1515.93 257.443 1514.28 257.732C1506.08 259.277 1497.77 260.967 1489.37 262.802C1480.97 264.636 1472.09 266.471 1462.72 268.306C1462.43 268.402 1462 268.451 1461.42 268.451C1460.35 268.451 1459.82 267.968 1459.82 267.002ZM1681.72 414.887C1681.63 415.273 1681.58 415.659 1681.58 416.045C1681.58 416.335 1681.58 416.625 1681.58 416.914C1681.58 419.328 1681.96 421.356 1682.74 422.998C1683.51 424.543 1684.33 425.846 1685.2 426.909C1686.16 427.874 1687.03 428.695 1687.81 429.371C1688.58 429.95 1688.96 430.481 1688.96 430.964C1688.96 432.316 1687.52 433.571 1684.62 434.73L1645.66 451.387C1645.56 451.484 1645.22 451.532 1644.64 451.532C1643.87 451.532 1643.1 450.856 1642.33 449.504C1641.55 448.152 1640.78 446.414 1640.01 444.29C1639.33 442.262 1638.66 440.089 1637.98 437.772C1637.4 435.358 1636.87 433.137 1636.39 431.109C1630.3 438.158 1623.74 443.324 1616.69 446.607C1609.64 449.89 1602.64 451.532 1595.69 451.532C1587.57 451.532 1579.66 449.745 1571.93 446.173C1564.21 442.6 1557.35 437.53 1551.36 430.964C1545.38 424.301 1540.55 416.287 1536.88 406.92C1533.31 397.554 1531.52 387.029 1531.52 375.345C1531.52 361.536 1533.5 348.935 1537.46 337.541C1541.51 326.146 1546.97 316.345 1553.83 308.137C1560.68 299.93 1568.65 293.605 1577.73 289.163C1586.9 284.625 1596.6 282.355 1606.84 282.355C1614.08 282.355 1620.94 283.852 1627.41 286.846C1633.88 289.742 1640.01 293.508 1645.8 298.143C1646.38 295.246 1646.72 292.929 1646.82 291.191C1646.91 289.453 1647.1 288.101 1647.39 287.135C1647.78 286.17 1648.46 285.542 1649.42 285.252C1650.39 284.866 1651.98 284.576 1654.2 284.383C1661.15 283.418 1668.06 282.549 1674.91 281.776C1681.87 280.907 1689.11 280.279 1696.64 279.893L1681.72 414.887ZM1638.41 360.281C1639.38 354.777 1640.01 349.611 1640.3 344.783C1640.68 339.858 1640.97 335.368 1641.17 331.312C1639.62 330.154 1637.93 328.947 1636.1 327.691C1634.36 326.436 1632.43 325.277 1630.3 324.215C1628.28 323.056 1626.1 322.139 1623.79 321.463C1621.56 320.787 1619.2 320.449 1616.69 320.449C1611.47 320.449 1607.08 322.139 1603.51 325.519C1600.03 328.898 1597.18 333.05 1594.96 337.975C1592.84 342.9 1591.29 348.114 1590.33 353.618C1589.46 359.122 1589.02 363.999 1589.02 368.247C1589.02 383.504 1591 394.705 1594.96 401.851C1599.02 408.9 1604.62 412.424 1611.76 412.424C1614.66 412.424 1617.89 411.604 1621.47 409.962C1625.04 408.32 1628.66 406.051 1632.33 403.154L1638.41 360.281Z" fill="#EBEBEB"/>
</svg>
